<svg id="check-circle-1" xmlns="http://www.w3.org/2000/svg" width="51" height="51" viewBox="0 0 51 51">
  <path id="Shape" d="M25.5,0A25.5,25.5,0,1,0,51,25.5,25.5,25.5,0,0,0,25.5,0Z" fill="#fff"/>
  <path id="Path" d="M25.58,2.877,12.647,19.289a1.941,1.941,0,0,1-1.276.7,2.008,2.008,0,0,1-1.425-.364l-9.236-6.9a1.691,1.691,0,0,1-.295-2.484,1.98,1.98,0,0,1,2.657-.276l7.7,5.761L22.538.787A1.939,1.939,0,0,1,24.289.008a1.882,1.882,0,0,1,1.563,1.074,1.675,1.675,0,0,1-.272,1.8Z" transform="translate(13 16)" fill="#1d1e25"/>
</svg>
