<svg id="press" xmlns="http://www.w3.org/2000/svg" width="41" height="41" viewBox="0 0 41 41">
  <g id="Vector" transform="translate(9.494 3.417)">
    <path id="Vector-2" data-name="Vector" d="M9.044,5a3.417,3.417,0,0,0-1,2.416v8.835L6.108,14.316A3.417,3.417,0,0,0,5,13.576l-1.736-.719a.282.282,0,0,0-.108-.021h0a.1.1,0,0,0-.086.047L1,16.1A3.417,3.417,0,0,0,.76,19.362l2.922,6.429A6.833,6.833,0,0,0,6.2,28.709l2.841,1.83a6.833,6.833,0,0,0,3.7,1.088h3.161a6.833,6.833,0,0,0,3.43-.923L23.2,28.461a2.055,2.055,0,0,0,.753-.758h0a4.238,4.238,0,0,0,.416-1.015l.662-2.494a2.865,2.865,0,0,0,.1-.735h0a.9.9,0,0,0-.264-.638l-4.568-4.568a6.833,6.833,0,0,0-4.832-2h-.586V7.417a3.417,3.417,0,0,0-1-2.416l-.708-.708a2.416,2.416,0,0,0-3.417,0Z" transform="translate(-0.454 2.54)" fill="none" stroke="#2b3341" stroke-linecap="round" stroke-linejoin="round" stroke-miterlimit="10" stroke-width="1.5"/>
    <path id="Vector-3" data-name="Vector" d="M.9,10.25a10.25,10.25,0,0,1,20.5,0" transform="translate(-0.14)" fill="none" stroke="#28303f" stroke-linecap="round" stroke-miterlimit="10" stroke-width="1.5"/>
  </g>
</svg>
