<svg id="home-flash_01" data-name="home-flash 01" xmlns="http://www.w3.org/2000/svg" width="36" height="36" viewBox="0 0 36 36">
  <g id="Vector" transform="translate(4.333 4.144)">
    <path id="Vector-2" data-name="Vector" d="M6.546,27.959a6,6,0,0,0,4.142,1.659h7.734a6,6,0,0,0,4.142-1.659l2.674-2.552A6,6,0,0,0,27.1,21.067v-3.5a6,6,0,0,1,.5-2.389l.134-.309a6,6,0,0,0,.476-2.881l-.144-1.749A6,6,0,0,0,25.5,5.8L19.787,1.834A6,6,0,0,0,16.366.763h-3.62A6,6,0,0,0,9.325,1.834L3.611,5.8a6,6,0,0,0-2.559,4.438L.909,11.986a6,6,0,0,0,.476,2.881l.134.309a6,6,0,0,1,.5,2.389v3.5a6,6,0,0,0,1.858,4.341Z" transform="translate(-0.888 -0.763)" fill="none" stroke="#2b3341" stroke-linejoin="round" stroke-miterlimit="10" stroke-width="1.5"/>
    <path id="Vector-3" data-name="Vector" d="M12.5,7,8,13h6L9.5,19" transform="translate(2.667 2.356)" fill="none" stroke="#28303f" stroke-linecap="round" stroke-linejoin="round" stroke-miterlimit="10" stroke-width="1.5"/>
  </g>
</svg>
