<svg id="UI_icon_16_up" data-name="UI icon 16/up" xmlns="http://www.w3.org/2000/svg" width="16" height="16" viewBox="0 0 16 16">
  <path id="Background" d="M0,0H16V16H0Z" fill="none"/>
  <g id="Frame_87" data-name="Frame 87" transform="translate(2 1)">
    <path id="Background-2" data-name="Background" d="M0,0H10V12H0Z" transform="translate(1 1)" fill="none"/>
    <g id="Vector_618" data-name="Vector 618">
      <path id="Vector_618-border" data-name="Vector 618-border" d="M10.293,6.707l1.414-1.414a1,1,0,1,1-1.414,1.414Zm-10,0a1,1,0,0,1,0-1.414L1.707,6.707a1,1,0,0,1-1.415,0ZM6,2.414,1.707,6.707.293,5.293l5-5a1,1,0,0,1,1.414,0l5,5L10.293,6.707ZM6,1H6L5.293.293Z" fill="#83bf6e"/>
    </g>
    <g id="Vector_619" data-name="Vector 619" transform="translate(4)">
      <path id="Vector_619-border" data-name="Vector 619-border" d="M0,13H4c0,.553-.895,1-2,1S0,13.552,0,13Zm0,0V1C0,.447.9,0,2,0S4,.447,4,1V13Z" fill="#83bf6e"/>
    </g>
  </g>
</svg>
