<svg width="20" height="20" viewBox="0 0 20 20" fill="none" xmlns="http://www.w3.org/2000/svg">
<path d="M10 0C8.02219 0 6.08879 0.58649 4.4443 1.6853C2.79981 2.78412 1.51809 4.3459 0.761209 6.17317C0.00433284 8.00043 -0.193701 10.0111 0.192152 11.9509C0.578004 13.8907 1.53041 15.6725 2.92894 17.0711C4.32746 18.4696 6.10929 19.422 8.0491 19.8079C9.98891 20.1937 11.9996 19.9957 13.8268 19.2388C15.6541 18.4819 17.2159 17.2002 18.3147 15.5557C19.4135 13.9112 20 11.9778 20 10C20 7.34784 18.9464 4.8043 17.0711 2.92893C15.1957 1.05357 12.6522 0 10 0Z" fill="#B5E4CA"/>
<path d="M14.839 7.151L9.86399 13.716C9.74353 13.87 9.56698 13.9699 9.37299 13.994C9.17839 14.0192 8.98165 13.9672 8.82499 13.849L5.27299 11.087C5.19878 11.0303 5.13679 10.9591 5.09072 10.8779C5.04466 10.7966 5.01548 10.7069 5.00493 10.614C4.99438 10.5212 5.00267 10.4272 5.02932 10.3377C5.05596 10.2482 5.10041 10.1649 5.15999 10.093C5.28304 9.94605 5.45825 9.85249 5.64882 9.83198C5.83938 9.81147 6.03049 9.8656 6.18199 9.983L9.14399 12.283L13.669 6.315C13.743 6.20736 13.8444 6.12142 13.9627 6.06604C14.081 6.01067 14.2119 5.98787 14.342 6C14.4713 6.01137 14.5953 6.05728 14.7008 6.13292C14.8064 6.20856 14.8897 6.31116 14.942 6.43C14.9935 6.5472 15.0114 6.67639 14.9937 6.80316C14.976 6.92994 14.9235 7.04932 14.842 7.148L14.839 7.151Z" fill="#1D1E25"/>
</svg>
