<svg id="Group_3" data-name="Group 3" xmlns="http://www.w3.org/2000/svg" xmlns:xlink="http://www.w3.org/1999/xlink" width="408" height="568" viewBox="0 0 408 568">
  <defs>
    <clipPath id="clip-path">
      <path id="Clip_2" data-name="Clip 2" d="M261.63,0C196.27,17.607,148.3,75.894,148.3,145.089h0c0,61.536,34.265,85.981,34.265,136.423h0c0,46.709-34.5,84.505-77.06,84.505h0c-42.571,0-77.076-37.8-77.076-84.505h0a90.5,90.5,0,0,1,6.52-34.223h0A206.739,206.739,0,0,0,0,362.482H0C0,475.985,91.339,568,203.992,568h0C316.661,568,408,475.985,408,362.482h0c0-165.492-159.371-178.32-159.371-305.631h0A129.894,129.894,0,0,1,261.63,0Z" fill="none"/>
    </clipPath>
    <linearGradient id="linear-gradient" x1="0.5" y1="1" x2="0.5" gradientUnits="objectBoundingBox">
      <stop offset="0" stop-color="#95c01f"/>
      <stop offset="1" stop-color="#008d36"/>
    </linearGradient>
  </defs>
  <path id="Clip_2-2" data-name="Clip 2" d="M261.63,0C196.27,17.607,148.3,75.894,148.3,145.089h0c0,61.536,34.265,85.981,34.265,136.423h0c0,46.709-34.5,84.505-77.06,84.505h0c-42.571,0-77.076-37.8-77.076-84.505h0a90.5,90.5,0,0,1,6.52-34.223h0A206.739,206.739,0,0,0,0,362.482H0C0,475.985,91.339,568,203.992,568h0C316.661,568,408,475.985,408,362.482h0c0-165.492-159.371-178.32-159.371-305.631h0A129.894,129.894,0,0,1,261.63,0Z" fill="none"/>
  <g id="Group_3-2" data-name="Group 3" clip-path="url(#clip-path)">
    <path id="Fill_1" data-name="Fill 1" d="M261.63,0C196.27,17.607,148.3,75.894,148.3,145.089h0c0,61.536,34.265,85.981,34.265,136.423h0c0,46.709-34.5,84.505-77.06,84.505h0c-42.571,0-77.076-37.8-77.076-84.505h0a90.5,90.5,0,0,1,6.52-34.223h0A206.739,206.739,0,0,0,0,362.482H0C0,475.985,91.339,568,203.992,568h0C316.661,568,408,475.985,408,362.482h0c0-165.492-159.371-178.32-159.371-305.631h0A129.894,129.894,0,0,1,261.63,0Z" fill="url(#linear-gradient)"/>
  </g>
</svg>
