<svg id="file-download" xmlns="http://www.w3.org/2000/svg" width="24" height="24.1" viewBox="0 0 24 24.1">
  <g id="Vector" transform="translate(2 2)">
    <path id="Vector-2" data-name="Vector" d="M19.438,16.495a.62.62,0,0,1-.084.9L16,20H4a4,4,0,0,1-4-4V4.243A3,3,0,0,1,.879,2.121L2.121.879A3,3,0,0,1,4.243,0h7.515a3,3,0,0,1,2.121.879l1.243,1.243A3,3,0,0,1,16,4.243V16h2.55a1,1,0,0,1,.749.337Z" fill="none" stroke="#28303f" stroke-miterlimit="10" stroke-width="1.5"/>
    <path id="Vector-3" data-name="Vector" d="M7.852,17.009l.048-.04.816-.72A1,1,0,0,1,9.378,16H16L4,20ZM8,9.586H7.414A2,2,0,0,1,6,9L5,8H8V8h3L10,9a2,2,0,0,1-1.414.586H8v0Z" fill="none" stroke="#28303f" stroke-linecap="round" stroke-miterlimit="10" stroke-width="1.5"/>
  </g>
</svg>
