<svg id="envelope" xmlns="http://www.w3.org/2000/svg" width="36" height="36" viewBox="0 0 36 36">
  <path id="Background" d="M0,0H36V36H0Z" fill="none"/>
  <g id="primary" transform="translate(4.5 7.5)">
    <path id="primary-border" d="M1.5,22V20h24a.5.5,0,0,0,.5-.5V1.5a.5.5,0,0,0-.5-.5H1.5a.5.5,0,0,0-.354.147L-.268-.268A2.5,2.5,0,0,1,1.5-1h24A2.5,2.5,0,0,1,28,1.5v18A2.5,2.5,0,0,1,25.5,22Zm-1.769-.732,1.415-1.414A.5.5,0,0,0,1.5,20v2A2.5,2.5,0,0,1-.268,21.268ZM-1,19.5H1a.5.5,0,0,0,.147.354L-.268,21.268A2.5,2.5,0,0,1-1,19.5Zm0,0V1.5H1v18ZM11.95,12.02l0,0,.624-.782-.62.785.722-.913-.725.91L5.377,6.782A1,1,0,0,1,6.623,5.218l6.57,5.234h0a.5.5,0,0,0,.614,0h0l6.57-5.234a1,1,0,0,1,1.247,1.564l-6.57,5.234-.725-.91.722.913-.62-.785.624.782,0,0a2.5,2.5,0,0,1-3.1,0ZM-1,1.5A2.5,2.5,0,0,1-.268-.268L1.147,1.147A.5.5,0,0,0,1,1.5Z" fill="#1d1e25"/>
  </g>
</svg>
