<svg id="Group_3" data-name="Group 3" xmlns="http://www.w3.org/2000/svg" xmlns:xlink="http://www.w3.org/1999/xlink" width="150" height="209" viewBox="0 0 150 209">
  <defs>
    <clipPath id="clip-path">
      <path id="Clip_2" data-name="Clip 2" d="M96.187,0C72.158,6.479,54.522,27.926,54.522,53.386h0c0,22.643,12.6,31.637,12.6,50.2h0c0,17.187-12.684,31.094-28.331,31.094h0c-15.651,0-28.337-13.907-28.337-31.094h0a33.325,33.325,0,0,1,2.4-12.593h0A76.117,76.117,0,0,0,0,133.378H0C0,175.142,33.581,209,75,209h0c41.422,0,75-33.858,75-75.622h0c0-60.894-58.592-65.614-58.592-112.459h0A47.829,47.829,0,0,1,96.187,0Z" fill="none"/>
    </clipPath>
    <linearGradient id="linear-gradient" x1="0.5" y1="1" x2="0.5" gradientUnits="objectBoundingBox">
      <stop offset="0" stop-color="#95c01f"/>
      <stop offset="1" stop-color="#008d36"/>
    </linearGradient>
  </defs>
  <path id="Clip_2-2" data-name="Clip 2" d="M96.187,0C72.158,6.479,54.522,27.926,54.522,53.386h0c0,22.643,12.6,31.637,12.6,50.2h0c0,17.187-12.684,31.094-28.331,31.094h0c-15.651,0-28.337-13.907-28.337-31.094h0a33.325,33.325,0,0,1,2.4-12.593h0A76.117,76.117,0,0,0,0,133.378H0C0,175.142,33.581,209,75,209h0c41.422,0,75-33.858,75-75.622h0c0-60.894-58.592-65.614-58.592-112.459h0A47.829,47.829,0,0,1,96.187,0Z" fill="none"/>
  <g id="Group_3-2" data-name="Group 3" clip-path="url(#clip-path)">
    <path id="Fill_1" data-name="Fill 1" d="M96.187,0C72.158,6.479,54.522,27.926,54.522,53.386h0c0,22.643,12.6,31.637,12.6,50.2h0c0,17.187-12.684,31.094-28.331,31.094h0c-15.651,0-28.337-13.907-28.337-31.094h0a33.325,33.325,0,0,1,2.4-12.593h0A76.117,76.117,0,0,0,0,133.378H0C0,175.142,33.581,209,75,209h0c41.422,0,75-33.858,75-75.622h0c0-60.894-58.592-65.614-58.592-112.459h0A47.829,47.829,0,0,1,96.187,0Z" fill="url(#linear-gradient)"/>
  </g>
</svg>
