<svg id="Group_2" data-name="Group 2" xmlns="http://www.w3.org/2000/svg" xmlns:xlink="http://www.w3.org/1999/xlink" width="223.5" height="53" viewBox="0 0 223.5 53">
  <defs>
    <clipPath id="clip-path">
      <path id="Clip_2" data-name="Clip 2" d="M21.8,0a12.6,12.6,0,0,0-9.444,12.084h0c0,5.125,2.855,7.161,2.855,11.362h0c0,3.89-2.875,7.038-6.422,7.038h0c-3.548,0-6.423-3.148-6.423-7.038h0a7.534,7.534,0,0,1,.543-2.85h0A17.212,17.212,0,0,0,0,30.19H0A17.059,17.059,0,0,0,17,47.308h0A17.059,17.059,0,0,0,34,30.19h0C34,16.407,20.719,15.338,20.719,4.735h0A10.814,10.814,0,0,1,21.8,0Z" fill="none"/>
    </clipPath>
    <linearGradient id="linear-gradient" x1="0.5" y1="1" x2="0.5" gradientUnits="objectBoundingBox">
      <stop offset="0" stop-color="#95c01f"/>
      <stop offset="1" stop-color="#008d36"/>
    </linearGradient>
    <clipPath id="clip-path-2">
      <path id="Clip_5" data-name="Clip 5" d="M0,0H24.589V22.835H0Z" fill="none"/>
    </clipPath>
  </defs>
  <g id="Group_8" data-name="Group 8">
    <g id="Group_7" data-name="Group 7">
      <g id="Group_3" data-name="Group 3">
        <path id="Clip_2-2" data-name="Clip 2" d="M21.8,0a12.6,12.6,0,0,0-9.444,12.084h0c0,5.125,2.855,7.161,2.855,11.362h0c0,3.89-2.875,7.038-6.422,7.038h0c-3.548,0-6.423-3.148-6.423-7.038h0a7.534,7.534,0,0,1,.543-2.85h0A17.212,17.212,0,0,0,0,30.19H0A17.059,17.059,0,0,0,17,47.308h0A17.059,17.059,0,0,0,34,30.19h0C34,16.407,20.719,15.338,20.719,4.735h0A10.814,10.814,0,0,1,21.8,0Z" fill="none"/>
        <g id="Group_3-2" data-name="Group 3" clip-path="url(#clip-path)">
          <path id="Fill_1" data-name="Fill 1" d="M21.8,0a12.6,12.6,0,0,0-9.444,12.084h0c0,5.125,2.855,7.161,2.855,11.362h0c0,3.89-2.875,7.038-6.422,7.038h0c-3.548,0-6.423-3.148-6.423-7.038h0a7.534,7.534,0,0,1,.543-2.85h0A17.212,17.212,0,0,0,0,30.19H0A17.059,17.059,0,0,0,17,47.308h0A17.059,17.059,0,0,0,34,30.19h0C34,16.407,20.719,15.338,20.719,4.735h0A10.814,10.814,0,0,1,21.8,0Z" fill="url(#linear-gradient)"/>
        </g>
      </g>
      <g id="Group_6" data-name="Group 6" transform="translate(6.691 25.165)">
        <path id="Clip_5-2" data-name="Clip 5" d="M0,0H24.589V22.835H0Z" fill="none"/>
        <g id="Group_6-2" data-name="Group 6" clip-path="url(#clip-path-2)">
          <path id="Fill_4" data-name="Fill 4" d="M.13,13.548c.209.344,1.48,1.763,3.137,3.734,1.98,2.356,4.213,5.011,4.474,5.311.48.553.833.171,1.552-1.274a71.754,71.754,0,0,1,5.923-10.395,67.043,67.043,0,0,1,8.229-9.253C24.474.843,24.954.29,24.269.014S18.227,3.551,15.1,6.96c-3.355,3.66-6.99,9.635-7.891,9.775-.722.113-4.214-2.524-5.2-3.144C.858,12.872-.415,12.654.13,13.548" fill="#fefefe"/>
        </g>
      </g>
    </g>
  </g>
  <text id="Beterstoken" transform="translate(140.5 44)" fill="#1d1e25" font-size="34" font-family="SegoeUI, Segoe UI" letter-spacing="-0.04em"><tspan x="-82.292" y="0">Beterstoken</tspan></text>
</svg>
